<?xml version="1.0" encoding="iso-8859-1"?>
<!-- Uploaded to: SVG Repo, www.svgrepo.com, Generator: SVG Repo Mixer Tools -->
<svg height="800px" width="800px" version="1.1" id="Layer_1" xmlns="http://www.w3.org/2000/svg" xmlns:xlink="http://www.w3.org/1999/xlink" 
	 viewBox="0 0 512.001 512.001" xml:space="preserve">
<path style="fill:#FA6E51;" d="M512.001,256.006c0,141.396-114.606,255.998-255.996,255.994
	C114.607,512.004,0.001,397.402,0.001,256.006C-0.006,114.61,114.607,0,256.005,0C397.395,0,512.001,114.614,512.001,256.006z"/>
<path style="fill:#E8573F;" d="M512.001,256.005c0-10.805-0.748-21.43-2.047-31.884c-0.361-0.363-0.721-0.724-1.085-1.085
	c-0.503-0.509-108.686-108.69-109.195-109.194C362.991,76.771,312.149,53.74,256.001,53.74c-111.524,0-202.26,90.736-202.26,202.26
	c0,56.149,23.034,106.993,60.106,143.677c0.502,0.508,1.006,1.01,1.514,1.513c0.503,0.509,107.17,107.175,107.678,107.678
	c0.361,0.364,0.723,0.726,1.086,1.087c10.452,1.299,21.076,2.046,31.881,2.046C397.395,512.004,512.001,397.401,512.001,256.005z"/>
<g>
	<path style="fill:#F4F6F9;" d="M344.49,163.297h-67.42c-4.658,0-8.428,3.774-8.428,8.428v42.138H243.36v-42.138
		c0-4.654-3.77-8.428-8.428-8.428h-67.42c-4.658,0-8.428,3.774-8.428,8.428v168.55c0,4.654,3.77,8.428,8.428,8.428h67.42
		c4.658,0,8.428-3.774,8.428-8.428v-42.138h25.282v42.138c0,4.654,3.77,8.428,8.428,8.428h67.42c4.658,0,8.428-3.774,8.428-8.428
		v-168.55C352.917,167.071,349.148,163.297,344.49,163.297z M336.063,331.847h-50.565V289.71c0-4.654-3.77-8.428-8.428-8.428
		h-42.138c-4.658,0-8.428,3.774-8.428,8.428v42.138h-50.565V180.153h50.565v42.138c0,4.654,3.77,8.428,8.428,8.428h42.138
		c4.658,0,8.428-3.774,8.428-8.428v-42.138h50.565V331.847z"/>
	<path style="fill:#F4F6F9;" d="M256.001,53.74c-111.524,0-202.26,90.736-202.26,202.26s90.736,202.26,202.26,202.26
		s202.26-90.736,202.26-202.26S367.525,53.74,256.001,53.74z M256.001,441.405c-102.233,0-185.405-83.172-185.405-185.405
		S153.768,70.595,256.001,70.595S441.406,153.767,441.406,256S358.234,441.405,256.001,441.405z"/>
</g>
</svg>